# xmcd
#
# Track frame offsets: 
#        150
#        19420
#        42405
#        61627
#        84649
#        100099
#        117551
#        131857
#        150980
#        172903
#        196201
#        216834
#
# Disc length: 3189 seconds
#
# Revision: 0
# Processed by: cddbd v1.5.2PL0 Copyright (c) Steve Scherf et al.
# Submitted via: ExactAudioCopyFreeDBPlugin 1.0
#
DISCID=9e0c730c
DTITLE=Tad Robinson - Day Into Night
DYEAR=2015
DGENRE=Blues
TTITLE0=Soul Lover
TTITLE1=Call Me
TTITLE2=Lonely Talking
TTITLE3=He's Moved On
TTITLE4=Lead Me On
TTITLE5=Mellow In Love
TTITLE6=Love Is A Winner
TTITLE7=Blue Yesterday
TTITLE8=While You Were Gone
TTITLE9=Nightwatch
TTITLE10=Need Some Better
TTITLE11=Call Me (Version 2)
EXTD=
EXTT0=
EXTT1=
EXTT2=
EXTT3=
EXTT4=
EXTT5=
EXTT6=
EXTT7=
EXTT8=
EXTT9=
EXTT10=
EXTT11=
PLAYORDER=
